<?xml version="1.0" encoding="utf-8"?>
<!-- Generator: Adobe Illustrator 21.1.0, SVG Export Plug-In . SVG Version: 6.00 Build 0)  -->
<svg version="1.1" xmlns="http://www.w3.org/2000/svg" xmlns:xlink="http://www.w3.org/1999/xlink" x="0px" y="0px"
	 viewBox="0 0 62 63" style="enable-background:new 0 0 62 63;" xml:space="preserve">
<style type="text/css">
	.st0{display:none;}
	.st1{display:inline;}
	.st2{fill:#CDF0F0;}
	.st3{opacity:0.1;fill:#000064;}
	.st4{opacity:0.5;fill:#FFFFFF;}
	.st5{fill:none;stroke:#2E4369;stroke-width:2;stroke-linecap:round;stroke-linejoin:round;stroke-miterlimit:10;}
	.st6{fill:#FFCC00;}
</style>
<g id="Layer_1" class="st0">
	<g class="st1">
		<g>
			<g>
				<path class="st2" d="M55,42.5c0-6.6-5.4-12-12-12c-0.4,0-0.8,0-1.2,0.1c-2.4-5.9-8.1-10.1-14.8-10.1c-8.2,0-14.9,6.1-15.9,14
					c0,0-0.1,0-0.1,0c-5.5,0-10,4.5-10,10c0,5.5,4.5,10,10,10h32.1l0,0C49.7,54.5,55,49.1,55,42.5z"/>
				<path class="st3" d="M11,37.5c0-1,0.1-1.9,0.3-2.8L11,34.5l0,0c-5.5,0-10,4.5-10,10c0,5.5,4.5,10,10,10h17
					C18.6,54.5,11,46.9,11,37.5z"/>
				<path class="st4" d="M55,42.5c0-6.6-5.4-12-12-12c-0.4,0-0.7,0-1.1,0.1c0,0,0,0-0.1,0c-2-5.1-6.6-8.9-12.1-9.8
					c-0.2,0-0.3-0.1-0.5-0.1c-0.2,0-0.5-0.1-0.7-0.1c-0.5,0-1-0.1-1.5-0.1c-0.5,0-1,0-1.6,0.1c-3.8,0.4-7.1,2-9.7,4.6
					c1.7-0.4,3.4-0.6,5.2-0.6c6.5,0,12.4,2.9,16.4,7.4c-0.4,0.2-0.7,0.4-1.1,0.6c0.2,0,0.5,0,0.7,0c8.3,0,15,6.7,15,15
					c0,1.2-0.1,2.3-0.4,3.3C53.7,48.7,55,45.7,55,42.5z M40.8,30.7C40.8,30.7,40.7,30.7,40.8,30.7C40.7,30.7,40.8,30.7,40.8,30.7z"
					/>
			</g>
			<path class="st2" d="M61,26.5c0-5.5-4.5-10-10-10c-2-4.7-6.6-8-12-8c-6.9,0-12.5,5.2-13,12l0,0c0.3,0,0.6,0,0.9,0
				c6.7,0,12.5,4.2,14.8,10.1c0.4,0,0.8-0.1,1.2-0.1c4.3,0,8.1,2.3,10.2,5.8l0,0C57.7,35.2,61,31.2,61,26.5z"/>
			<path class="st3" d="M61,26.5c0-5.5-4.5-10-10-10c-2-4.7-6.6-8-12-8c-6.9,0-12.5,5.2-13,12l0,0c0.3,0,0.6,0,0.9,0
				c6.7,0,12.5,4.2,14.8,10.1c0.4,0,0.8-0.1,1.2-0.1c4.3,0,8.1,2.3,10.2,5.8l0,0C57.7,35.2,61,31.2,61,26.5z"/>
		</g>
		<g>
			<path class="st5" d="M53.2,36.2c4.4-1,7.8-5,7.8-9.8c0-5.5-4.5-10-10-10c-2-4.7-6.6-8-12-8c-6.9,0-12.5,5.2-13,12"/>
			<path class="st5" d="M55,42.5c0-6.6-5.4-12-12-12c-0.4,0-0.8,0-1.2,0.1c-2.4-5.9-8.1-10.1-14.8-10.1c-8.2,0-14.9,6.1-15.9,14
				c0,0-0.1,0-0.1,0c-5.5,0-10,4.5-10,10c0,5.5,4.5,10,10,10h32.1l0,0C49.7,54.5,55,49.1,55,42.5z"/>
		</g>
	</g>
</g>
<g id="Layer_4" class="st0">
	<g class="st1">
		<g>
			<path class="st2" d="M48,11.5c-0.2,0-0.3,0-0.5,0c-2.7-5.9-8.6-10-15.5-10c-8.5,0-15.6,6.3-16.8,14.5c-1-0.3-2.1-0.5-3.2-0.5
				c-6.1,0-11,4.9-11,11c0,6.1,4.9,11,11,11h35.9c0,0,0.1,0,0.1,0c7.2,0,13-5.8,13-13C61,17.3,55.2,11.5,48,11.5z"/>
			<path class="st3" d="M15,19.5c0-1.2,0.1-2.4,0.3-3.5l-0.2,0c-1-0.3-2.1-0.5-3.2-0.5c-6.1,0-11,4.9-11,11c0,6.1,4.9,11,11,11h21
				C23.1,37.5,15,29.4,15,19.5z"/>
			<path class="st4" d="M61,24.5c0-7.2-5.8-13-13-13c-0.2,0-0.3,0-0.5,0c-2.2-5-6.8-8.7-12.3-9.7c-0.4-0.1-0.8-0.1-1.2-0.2
				c-0.1,0-0.2,0-0.3,0c-0.6-0.1-1.2-0.1-1.7-0.1c-1.1,0-2.1,0.1-3.2,0.3c-3.2,0.6-6,2.1-8.3,4.2C22,5.7,23.5,5.5,25,5.5
				c6.7,0,12.8,2.9,17,7.5c-1.6,0.9-3,2-4.2,3.4c1.6-0.6,3.4-0.9,5.2-0.9c8.3,0,15,6.7,15,15c0,0.9-0.1,1.7-0.2,2.6
				C59.8,30.8,61,27.8,61,24.5z"/>
		</g>
		<g>
			<path class="st5" d="M48,11.5c-0.2,0-0.3,0-0.5,0c-2.7-5.9-8.6-10-15.5-10c-8.5,0-15.6,6.3-16.8,14.5c-1-0.3-2.1-0.5-3.2-0.5
				c-6.1,0-11,4.9-11,11c0,6.1,4.9,11,11,11h35.9c0,0,0.1,0,0.1,0c7.2,0,13-5.8,13-13C61,17.3,55.2,11.5,48,11.5z"/>
			<line class="st5" x1="3" y1="55.5" x2="1" y2="58"/>
			<line class="st5" x1="11" y1="45.5" x2="7.5" y2="49.9"/>
			<line class="st5" x1="11.8" y1="59.5" x2="10.2" y2="61.5"/>
			<line class="st5" x1="23" y1="45.5" x2="16.6" y2="53.5"/>
			<line class="st5" x1="28.7" y1="53.4" x2="25" y2="58"/>
			<line class="st5" x1="35" y1="45.5" x2="33.4" y2="47.5"/>
			<line class="st5" x1="38.3" y1="56.3" x2="34.2" y2="61.5"/>
			<line class="st5" x1="47" y1="45.5" x2="43.1" y2="50.4"/>
		</g>
	</g>
</g>
<g id="Layer_3">
	<g>
		<g>
			<circle class="st6" cx="31" cy="31.5" r="14"/>
			<path class="st4" d="M31,17.5c-4.6,0-8.7,2.3-11.3,5.7c2.3-1.7,5.2-2.7,8.3-2.7c7.7,0,14,6.3,14,14c0,3.1-1,6-2.7,8.3
				c3.5-2.5,5.7-6.6,5.7-11.3C45,23.8,38.7,17.5,31,17.5z"/>
		</g>
		<g>
			<circle class="st5" cx="31" cy="31.5" r="14"/>
			<line class="st5" x1="31" y1="1.5" x2="31" y2="9.5"/>
			<line class="st5" x1="31" y1="53.5" x2="31" y2="61.5"/>
			<line class="st5" x1="61" y1="31.5" x2="53" y2="31.5"/>
			<line class="st5" x1="9" y1="31.5" x2="1" y2="31.5"/>
			<line class="st5" x1="9.8" y1="10.3" x2="15.4" y2="15.9"/>
			<line class="st5" x1="46.6" y1="47.1" x2="52.2" y2="52.7"/>
			<line class="st5" x1="52.2" y1="10.3" x2="46.6" y2="15.9"/>
			<line class="st5" x1="15.4" y1="47.1" x2="9.8" y2="52.7"/>
		</g>
	</g>
</g>
<g id="Layer_2" class="st0">
	<g class="st1">
		<g>
			<path class="st2" d="M48,12.5c-0.2,0-0.3,0-0.5,0c-2.7-5.9-8.6-10-15.5-10c-8.5,0-15.6,6.3-16.8,14.5c-1-0.3-2.1-0.5-3.2-0.5
				c-6.1,0-11,4.9-11,11c0,6.1,4.9,11,11,11h35.9c0,0,0.1,0,0.1,0c7.2,0,13-5.8,13-13C61,18.3,55.2,12.5,48,12.5z"/>
			<path class="st3" d="M15,20.5c0-1.2,0.1-2.4,0.3-3.5l-0.2,0c-1-0.3-2.1-0.5-3.2-0.5c-6.1,0-11,4.9-11,11c0,6.1,4.9,11,11,11h21
				C23.1,38.5,15,30.4,15,20.5z"/>
			<path class="st4" d="M61,25.5c0-7.2-5.8-13-13-13c-0.2,0-0.3,0-0.5,0c-2.2-5-6.8-8.7-12.3-9.7c-0.4-0.1-0.8-0.1-1.2-0.2
				c-0.1,0-0.2,0-0.3,0c-0.6-0.1-1.2-0.1-1.7-0.1c-1.1,0-2.1,0.1-3.2,0.3c-3.2,0.6-6,2.1-8.3,4.2C22,6.7,23.5,6.5,25,6.5
				c6.7,0,12.8,2.9,17,7.5c-1.6,0.9-3,2-4.2,3.4c1.6-0.6,3.4-0.9,5.2-0.9c8.3,0,15,6.7,15,15c0,0.9-0.1,1.7-0.2,2.6
				C59.8,31.8,61,28.8,61,25.5z"/>
		</g>
		<g>
			<g>
				<line class="st5" x1="17" y1="46.5" x2="17" y2="50.5"/>
				<line class="st5" x1="19" y1="48.5" x2="15" y2="48.5"/>
			</g>
			<g>
				<line class="st5" x1="33" y1="48.5" x2="29" y2="48.5"/>
				<line class="st5" x1="31" y1="50.5" x2="31" y2="46.5"/>
			</g>
			<g>
				<line class="st5" x1="26" y1="58.5" x2="22" y2="58.5"/>
				<line class="st5" x1="24" y1="60.5" x2="24" y2="56.5"/>
			</g>
			<g>
				<line class="st5" x1="39" y1="56.5" x2="39" y2="60.5"/>
				<line class="st5" x1="41" y1="58.5" x2="37" y2="58.5"/>
			</g>
			<g>
				<line class="st5" x1="45" y1="46.5" x2="45" y2="50.5"/>
				<line class="st5" x1="47" y1="48.5" x2="43" y2="48.5"/>
			</g>
			<path class="st5" d="M48,12.5c-0.2,0-0.3,0-0.5,0c-2.7-5.9-8.6-10-15.5-10c-8.5,0-15.6,6.3-16.8,14.5c-1-0.3-2.1-0.5-3.2-0.5
				c-6.1,0-11,4.9-11,11c0,6.1,4.9,11,11,11h35.9c0,0,0.1,0,0.1,0c7.2,0,13-5.8,13-13C61,18.3,55.2,12.5,48,12.5z"/>
		</g>
	</g>
</g>
</svg>
